<svg id="4db14d7a-75f4-4457-8dc2-d6868fa65ee9" data-name="Layer 1" xmlns="http://www.w3.org/2000/svg" xmlns:xlink="http://www.w3.org/1999/xlink" viewBox="0 0 3004.55 776.76"><defs><clipPath id="1268a94e-329d-46d4-a75a-54a19fe6e449" transform="translate(-133.14 -10.67)"><rect width="800" height="800" fill="none"/></clipPath><clipPath id="d977a298-47fd-458b-b60e-8fb1e7059ae3" transform="translate(-133.14 -10.67)"><rect x="259.41" y="199.64" width="52.6" height="88.24" fill="none"/></clipPath><clipPath id="0b374c07-68a7-4968-b198-feb5aeb49c64" transform="translate(-133.14 -10.67)"><rect x="474.06" y="195.39" width="52.6" height="86.54" fill="none"/></clipPath><clipPath id="1531a380-3b7e-4cee-b74b-1067d6e421e3" transform="translate(-133.14 -10.67)"><rect x="234.1" y="290.22" width="84.87" height="110.52" fill="none"/></clipPath><clipPath id="4f69035c-411b-4a39-ae52-f12846edd137" transform="translate(-133.14 -10.67)"><rect x="468.48" y="292.55" width="90.81" height="110.52" fill="none"/></clipPath></defs><title>logo--brightcrowd</title><g clip-path="url(#1268a94e-329d-46d4-a75a-54a19fe6e449)"><g clip-path="url(#1268a94e-329d-46d4-a75a-54a19fe6e449)"><g clip-path="url(#1268a94e-329d-46d4-a75a-54a19fe6e449)"><g opacity="0.8"><g clip-path="url(#d977a298-47fd-458b-b60e-8fb1e7059ae3)"><path d="M312,243.76c0,24.37-11.78,44.12-26.3,44.12s-26.3-19.75-26.3-44.12,11.78-44.12,26.3-44.12S312,219.39,312,243.76" transform="translate(-133.14 -10.67)" fill="#f58d74"/></g></g><g opacity="0.8"><g clip-path="url(#0b374c07-68a7-4968-b198-feb5aeb49c64)"><path d="M526.67,238.66c0,23.9-11.78,43.27-26.3,43.27s-26.3-19.37-26.3-43.27,11.78-43.27,26.3-43.27,26.3,19.37,26.3,43.27" transform="translate(-133.14 -10.67)" fill="#6366ad"/></g></g><path d="M425.7,238.67c0,25.31-12.91,45.82-28.85,45.82S368,264,368,238.67s12.91-45.82,28.84-45.82,28.85,20.51,28.85,45.82" transform="translate(-133.14 -10.67)" fill="#00b1e8"/><polygon points="311.96 485.64 202.1 485.64 184.26 353.3 190.2 306.81 249.5 283.02 268.59 283.02 317.91 306.81 341.7 335.5 311.96 485.64" fill="#00b1e8"/><g opacity="0.8"><g clip-path="url(#1531a380-3b7e-4cee-b74b-1067d6e421e3)"><polygon points="179.88 390.07 130.7 390.07 100.96 309.29 150.54 279.55 185.83 297.39 179.88 390.07" fill="#f58d74"/></g></g><g opacity="0.8"><g clip-path="url(#4f69035c-411b-4a39-ae52-f12846edd137)"><polygon points="390.47 392.4 335.34 392.4 335.34 299.73 367.47 281.88 426.15 305.67 390.47 392.4" fill="#6366ad"/></g></g><path d="M224.57,576.67S342,735.83,561.14,600.15c0,0,7.83,91.32-7.83,99.15,0,0-5.22,23.49-52.18,28.7,0,0-18.84,54-103.34,50.5S310.67,741,308.06,722.78,235,701.9,235,662.77s-10.44-86.1-10.44-86.1" transform="translate(-133.14 -10.67)" fill="#a9fbd7"/><path d="M420.18,10.67A239,239,0,0,0,202.63,149.43,239.43,239.43,0,0,1,355.68,94.52c131.93,0,238.86,105.78,238.86,236.26a233.14,233.14,0,0,1-21.3,97.5C625.67,384.95,659,319.8,659,246.93,659,116.45,552.1,10.67,420.18,10.67" transform="translate(-133.14 -10.67)" fill="#a9fbd7"/><path d="M484.82,742.64c0,19.81-39,35.86-87,35.86s-87-16.05-87-35.86" transform="translate(-133.14 -10.67)" fill="none" stroke="#4a525a" stroke-linecap="round" stroke-linejoin="round" stroke-width="17.84"/><path d="M248.7,598.11c0,34.07,67,61.69,149.74,61.69s149.74-27.62,149.74-61.69" transform="translate(-133.14 -10.67)" fill="none" stroke="#4a525a" stroke-linecap="round" stroke-linejoin="round" stroke-width="17.84"/><path d="M248.7,662.17c0,34.07,67,61.69,149.74,61.69s149.74-27.62,149.74-61.69" transform="translate(-133.14 -10.67)" fill="none" stroke="#4a525a" stroke-linecap="round" stroke-linejoin="round" stroke-width="17.84"/><path d="M248.12,594.51l-.17-1.07v-73s-3.32-43.16-23.24-66.41S88.59,311.23,171.59,161.82,400.69,29,400.69,29h-6.22s146.09-16.6,229.09,132.81S590.36,430.75,570.44,454,547.2,520.4,547.2,520.4v73" transform="translate(-133.14 -10.67)" fill="none" stroke="#4a525a" stroke-linecap="round" stroke-linejoin="round" stroke-width="17.84"/><ellipse cx="150.29" cy="231.11" rx="34.05" ry="47.89" fill="none" stroke="#4a525a" stroke-linecap="round" stroke-linejoin="round" stroke-width="17.84"/><ellipse cx="260.81" cy="229.18" rx="34.05" ry="47.89" fill="none" stroke="#4a525a" stroke-linecap="round" stroke-linejoin="round" stroke-width="17.84"/><path d="M376.52,295.09c-18.19,26.59-43,12.22-53.18,22.39-33.94,33.75,21.8,190.21,21.8,190.21" transform="translate(-133.14 -10.67)" fill="none" stroke="#4a525a" stroke-linecap="round" stroke-linejoin="round" stroke-width="17.84"/><path d="M408.59,293.05c18.19,26.59,43.07,12.1,53.18,22.39,34,34.61-26.53,192.25-26.53,192.25" transform="translate(-133.14 -10.67)" fill="none" stroke="#4a525a" stroke-linecap="round" stroke-linejoin="round" stroke-width="17.84"/><path d="M272.36,287.68s-2,19.78-36.75,30" transform="translate(-133.14 -10.67)" fill="none" stroke="#4a525a" stroke-linecap="round" stroke-linejoin="round" stroke-width="17.84"/><path d="M298.66,287.68s1,13.55,14.29,25" transform="translate(-133.14 -10.67)" fill="none" stroke="#4a525a" stroke-linecap="round" stroke-linejoin="round" stroke-width="17.84"/><ellipse cx="368.53" cy="231.11" rx="34.05" ry="47.89" fill="none" stroke="#4a525a" stroke-linecap="round" stroke-linejoin="round" stroke-width="17.84"/><path d="M551.73,319.93c-34.71-10.21-39-32.25-39-32.25" transform="translate(-133.14 -10.67)" fill="none" stroke="#4a525a" stroke-linecap="round" stroke-linejoin="round" stroke-width="17.84"/><path d="M486.43,287.68s-1,13.55-14.29,25" transform="translate(-133.14 -10.67)" fill="none" stroke="#4a525a" stroke-linecap="round" stroke-linejoin="round" stroke-width="17.84"/></g></g></g><path d="M961.05,420.22c-7.1,17.75-25.15,26.33-45.56,26.33h-35.8a9.63,9.63,0,0,1-10.06-10.06V73.18a9.63,9.63,0,0,1,10.06-10.06h74.85A9.63,9.63,0,0,1,964.6,73.18V212.23c10.06-10.65,26.33-25.74,64.79-25.74,54.14,0,104.44,35.8,104.44,131.07s-50.3,131.07-104.44,131.07C988,449.21,972.3,434.12,961.05,420.22Zm77.81-102.37c0-41.72-14.5-53.55-40.83-53.55a73.05,73.05,0,0,0-33.14,8v91.12a74,74,0,0,0,33.14,8C1024.37,371.4,1038.86,359.57,1038.86,317.85Z" transform="translate(-133.14 -10.67)" fill="#475159"/><path d="M1161.94,436.19V199.51A9.63,9.63,0,0,1,1172,189.45h34.32c25.15,0,45.56,9.76,48.82,34.91C1265.2,207.79,1288.86,188,1322,188c15.09,0,31.66,7.4,31.66,19.23v81.36c0,5.92-3.85,10.65-10.06,10.65-4.73,0-9.17-2.66-13.91-5.92-6.51-3.85-14.5-8.58-29-8.58-27.22,0-43.49,12.72-43.49,12.72V436.19a9.63,9.63,0,0,1-10.06,10.06H1172.3C1166.08,446.55,1161.94,442.11,1161.94,436.19Z" transform="translate(-133.14 -10.67)" fill="#475159"/><path d="M1376.14,436.19V199.51a9.63,9.63,0,0,1,10.06-10.06h74.85a9.63,9.63,0,0,1,10.06,10.06V436.19a9.63,9.63,0,0,1-10.06,10.06H1386.2C1380.28,446.55,1376.14,442.11,1376.14,436.19Zm47.63-373.08a45.56,45.56,0,1,1-45.56,45.56A45.58,45.58,0,0,1,1423.78,63.12Z" transform="translate(-133.14 -10.67)" fill="#475159"/><path d="M1486.79,478.5c0-30.47,13.91-56.21,42.31-70.12C1523.78,403.06,1519,393,1519,378.5c0-16,7.1-29,13.31-33.73-21.89-13.31-34.91-38.46-34.91-70.12,0-68,55-90.53,116.27-90.53a138.16,138.16,0,0,1,37.57,5.33c13.91-25.15,35.8-41.72,66.86-41.72,15.09,0,31.66,7.4,31.66,19.23v44.38c0,5.33-3.85,8-8.58,8-2.07,0-4.73-1.18-7.4-2.07a39.81,39.81,0,0,0-15.38-3.25c-4.14,0-9.76,1.48-12.43,3.25,11.24,10.65,24,33.73,24,57.4,0,68-55,90.53-116.27,90.53a63.17,63.17,0,0,1-7.4-.59,14.42,14.42,0,0,0-9.17,13.91c0,6.51,2.66,10.65,8.58,13.31a48.45,48.45,0,0,1,9.17-.59c84.62,0,127.81,31.66,127.81,87.28s-43.49,87.28-127.81,87.28S1486.79,534.12,1486.79,478.5Zm167.16,0c0-16-13.31-21.89-39.05-21.89s-39.05,5.92-39.05,21.89,13.31,21.89,39.05,21.89S1654,494.48,1654,478.5Zm-13-203.85c0-24.56-10.65-33.14-27.22-33.14s-27.22,8.58-27.22,33.14,10.65,33.14,27.22,33.14S1640.94,299.21,1640.94,274.65Z" transform="translate(-133.14 -10.67)" fill="#475159"/><path d="M1763.12,436.19v-363a9.63,9.63,0,0,1,10.06-10.06H1848a9.63,9.63,0,0,1,10.06,10.06V234.42c10.06-21.89,37.57-48.22,78.7-48.22,58.28,0,74.56,38.46,74.56,89.35V436.19a9.63,9.63,0,0,1-10.06,10.06h-74.85a9.63,9.63,0,0,1-10.06-10.06V294.77c0-18.64-10.65-24-20.41-24-18.34,0-37.57,9.17-37.57,9.17V436.19a9.63,9.63,0,0,1-10.06,10.06h-74.85C1767.27,446.55,1763.12,442.11,1763.12,436.19Z" transform="translate(-133.14 -10.67)" fill="#475159"/><path d="M2058.69,390.63V248.32h-24.56a9.63,9.63,0,0,1-10.06-10.06V199.8a9.63,9.63,0,0,1,10.06-10.06h24.56V137.67a9.63,9.63,0,0,1,10.06-10.06h74.85a9.63,9.63,0,0,1,10.06,10.06v52.07h37a9.63,9.63,0,0,1,10.06,10.06v38.46a9.63,9.63,0,0,1-10.06,10.06h-37V365.48c0,10.65,2.66,16.57,12.72,16.57,7.4,0,12.72-1.48,21.3-4.14,6.51-2.07,12.72-.59,12.72,11.24v16c0,14.5-2.07,22.49-6.51,26.63-13.31,13.31-35.8,18.64-68.64,18.64C2087.39,450.69,2058.69,430.87,2058.69,390.63Z" transform="translate(-133.14 -10.67)" fill="#475159"/><path d="M1771.41,628.8c0-84,45-133.73,131.66-133.73,37.57,0,61.54,11.24,74,19.23S1992.12,527,1992.12,538v37.57c0,11.24-2.66,17.75-11.24,17.75-4.73,0-8.58-2.07-16-5.92a111.36,111.36,0,0,0-49.11-11.83c-26.63,0-48.82,10.65-48.82,53.55s21.89,53.55,48.82,53.55c18.34,0,34.91-4.14,49.11-11.83,7.4-3.85,11.24-5.92,16-5.92,8.58,0,11.24,6.51,11.24,17.75v37.57c0,10.65-2.66,15.38-15.09,23.67-12.43,8-36.39,19.23-74,19.23C1816.38,762.52,1771.41,712.82,1771.41,628.8Z" transform="translate(-133.14 -10.67)" fill="#475159"/><path d="M2021.7,747.14V510.45a9.63,9.63,0,0,1,10.06-10.06h34.32c25.15,0,45.56,9.76,48.82,34.91,10.06-16.57,33.73-36.39,66.86-36.39,15.09,0,31.66,7.4,31.66,19.23v81.36c0,5.92-3.85,10.65-10.06,10.65-4.73,0-9.17-2.66-13.91-5.92-6.51-3.85-14.5-8.58-29-8.58-27.22,0-43.49,12.72-43.49,12.72V747.14a9.63,9.63,0,0,1-10.06,10.06h-74.85C2026.14,757.2,2021.7,753.06,2021.7,747.14Z" transform="translate(-133.14 -10.67)" fill="#475159"/><path d="M2220.82,628.8c0-92.6,60.36-133.73,133.73-133.73s133.73,41.12,133.73,133.73-60.36,133.73-133.73,133.73C2281.47,762.52,2220.82,721.4,2220.82,628.8Zm172.49,0c0-42.9-16.57-53.55-38.46-53.55s-38.46,10.65-38.46,53.55,16.57,53.55,38.46,53.55S2393.3,671.7,2393.3,628.8Z" transform="translate(-133.14 -10.67)" fill="#475159"/><path d="M2709.57,509.27l22.49,94.08c3.25,13.91,5.92,32.54,5.92,37.87,0,4.73,0,6.51,2.07,6.51s2.07-1.48,2.07-6.51c0-5.33,2.07-23.67,5.33-37.87l21.89-94.08c1.48-6.51,5.92-9.17,12.43-9.17h70.71a9.66,9.66,0,0,1,9.76,9.76c0,7.1-1.48,13.31-4.14,21.3L2793.3,747.44c-2.07,6.51-4.73,9.76-10.65,9.76h-66.27c-5.92,0-9.17-3.25-10.65-9.76l-17.16-68c-3.85-15.09-10.06-43.49-10.06-48.82,0-4.73,0-6.51-2.07-6.51s-2.07,1.48-2.07,6.51c0,5.33-6.51,33.73-10.06,48.82l-17.16,68c-1.48,6.51-4.73,9.76-10.65,9.76h-66.27c-5.92,0-9.17-3.85-10.65-9.76l-65.68-216c-2.07-7.1-4.14-14.5-4.14-21.3a9.66,9.66,0,0,1,9.76-9.76h70.71c6.51,0,10.65,2.66,12.43,9.17l21.89,94.08c3.25,14.5,5.33,32.54,5.33,37.87,0,4.73,0,6.51,2.07,6.51s2.07-1.48,2.07-6.51c0-5.33,2.66-23.67,5.92-37.87l22.49-94.08c1.48-6.51,5.92-9.17,12.43-9.17h42.9C2703.66,500.39,2708.1,503.06,2709.57,509.27Z" transform="translate(-133.14 -10.67)" fill="#475159"/><path d="M2967.86,759.86c-54.14,0-104.44-35.8-104.44-131.07s50.3-131.07,104.44-131.07c38.46,0,54.73,15.09,64.79,25.74V384.42a9.63,9.63,0,0,1,10.06-10.06h74.85a9.63,9.63,0,0,1,10.06,10.06V696.25c0,11.83,3.25,17.16,10.06,17.16v6.51c0,18.64-7.1,40.83-50.89,40.83-26.63,0-43.79-8.58-50.89-26.33C3025,746,3009.57,759.86,2967.86,759.86Zm64.5-85.5V583.23a74,74,0,0,0-33.14-8c-26.33,0-40.83,11.83-40.83,53.55s14.5,53.55,40.83,53.55A72.1,72.1,0,0,0,3032.36,674.36Z" transform="translate(-133.14 -10.67)" fill="#475159"/></svg>